<?xml version="1.0" encoding="utf-8"?>
<!-- Generator: Adobe Illustrator 16.0.0, SVG Export Plug-In . SVG Version: 6.00 Build 0)  -->
<!DOCTYPE svg PUBLIC "-//W3C//DTD SVG 1.1//EN" "http://www.w3.org/Graphics/SVG/1.1/DTD/svg11.dtd">
<svg version="1.1" id="homePageCapsule" xmlns="http://www.w3.org/2000/svg" xmlns:xlink="http://www.w3.org/1999/xlink" x="0px"
	 y="0px" width="3840px" height="2160px" viewBox="0 0 3840 2160" enable-background="new 0 0 3840 2160" xml:space="preserve">
<g>
	<g>
		<path fill="#E6E6E6" d="M1727.053,834.04c-1.678,2.178-3.052,6.21-3.052,8.96v720c0,2.75,1.374,6.782,3.052,8.96l98.13,127.314
			c1.68,2.178,5.303,3.96,8.053,3.96l173.529,0.001c2.75,0,6.374-1.782,8.053-3.96l98.129-127.314
			c1.679-2.178,3.053-6.209,3.053-8.959V843c0-2.75-1.374-6.781-3.053-8.96l-98.129-127.313c-1.679-2.178-5.303-3.961-8.053-3.961
			h-173.529c-2.75,0-6.373,1.783-8.053,3.961L1727.053,834.04z"/>
	</g>
	<g>
		<path fill="#019DE7" d="M2121.841,1568.001c2.75,0,3.58,1.745,1.845,3.878l-103.689,127.477c-1.735,2.134-5.405,3.879-8.155,3.879
			l-183.682-0.001c-2.75,0-6.42-1.745-8.156-3.879l-103.689-127.476c-1.735-2.134-0.905-3.879,1.845-3.879L2121.841,1568.001z"/>
	</g>
	<g>
		<path fill="#332E2D" d="M2127.095,1541.249c2.75,0,5,2.25,5,5v18.752c0,2.75-2.25,5-5,5L1712.905,1570c-2.75,0-5-2.25-5-5v-18.752
			c0-2.75,2.25-5,5-5L2127.095,1541.249z"/>
	</g>
	<g>
		<path fill="#019DE7" d="M1718.159,838c-2.75,0-3.58-1.746-1.845-3.879l103.689-127.477c1.736-2.132,5.406-3.878,8.156-3.878
			h183.682c2.75,0,6.42,1.747,8.155,3.878l103.689,127.477c1.735,2.134,0.905,3.879-1.845,3.879H1718.159z"/>
	</g>
	<g opacity="0.2">
		<path d="M1923.083,707.766c0-2.75,2.25-5,5-5h86.841c2.75,0,6.42,1.747,8.155,3.878l103.689,127.477
			c1.735,2.133,0.905,3.879-1.845,3.879h-196.841c-2.75,0-5-2.25-5-5V707.766z"/>
	</g>
	<g opacity="0.2">
		<path d="M1919.999,1698.234c0,2.75,2.25,5,5,5l86.841,0.001c2.75,0,6.42-1.745,8.155-3.879l103.689-127.477
			c1.735-2.133,0.905-3.878-1.845-3.878L1924.999,1568c-2.75,0-5,2.25-5,5V1698.234z"/>
	</g>
	<g>
		<path fill="#332E2D" d="M1712.905,864.752c-2.75,0-5-2.25-5-5V841c0-2.75,2.25-5,5-5h414.189c2.75,0,5,2.25,5,5v18.752
			c0,2.75-2.25,5-5,5H1712.905z"/>
	</g>
	<rect x="1923.083" y="864.751" opacity="0.1" width="192.916" height="676.497"/>
</g>
</svg>
