<?xml version="1.0" encoding="utf-8"?>
<!-- Generator: Adobe Illustrator 16.0.0, SVG Export Plug-In . SVG Version: 6.00 Build 0)  -->
<!DOCTYPE svg PUBLIC "-//W3C//DTD SVG 1.1//EN" "http://www.w3.org/Graphics/SVG/1.1/DTD/svg11.dtd">
<svg version="1.1" id="homePageTube" xmlns="http://www.w3.org/2000/svg" xmlns:xlink="http://www.w3.org/1999/xlink" x="0px"
	 y="0px" width="3840px" height="2160px" viewBox="0 0 3840 2160" enable-background="new 0 0 3840 2160" xml:space="preserve">
<g>
	<g>
		<path fill="#666666" d="M8781.646,961.516v482.97H2739.997v-241.49h210c141,0,263-174.89,277-241.48h757.34
			c14,66.59,136,241.48,277,241.48h4515.34v-241.48H8781.646z"/>
		<rect x="2740" y="1299.458" opacity="0.2" width="6036.681" height="145.028"/>
		<path opacity="0.5" fill="#FFFFFF" d="M8776.681,959.26v241.48H4261.342c-141,0-263-174.891-277-241.48H8776.681z"/>
	</g>
	<g>
		<circle fill="#B3B3B3" cx="3785.673" cy="1408.231" r="36.254"/>
		<path opacity="0.2" d="M3821.927,1408.23c0,20.021-16.231,36.254-36.255,36.254c-20.022,0-36.254-16.232-36.254-36.254"/>
		<circle fill="#B3B3B3" cx="3785.673" cy="997.77" r="36.254"/>
		<circle fill="#B3B3B3" cx="3785.673" cy="1134.591" r="36.254"/>
		<circle fill="#B3B3B3" cx="3785.673" cy="1271.411" r="36.254"/>
		<path opacity="0.2" d="M3821.927,1271.411c0,20.021-16.231,36.254-36.255,36.254c-20.022,0-36.254-16.232-36.254-36.254"/>
		<path opacity="0.2" d="M3821.927,1134.591c0,20.021-16.231,36.254-36.255,36.254c-20.022,0-36.254-16.232-36.254-36.254"/>
		<path opacity="0.2" d="M3821.927,997.77c0,20.022-16.231,36.254-36.255,36.254c-20.022,0-36.254-16.232-36.254-36.254"/>
		<rect x="3769.605" y="917.421" fill="#333333" width="71.995" height="571.16"/>
		<rect x="3769.605" y="1271.411" opacity="0.2" width="73.661" height="217.17"/>
		<g>
			<rect x="3841.6" y="961.516" fill="#B3B3B3" width="18.652" height="72.158"/>
			<rect x="3841.6" y="985.676" opacity="0.2" width="18.652" height="24.16"/>
			<rect x="3841.6" y="1009.836" opacity="0.3" width="18.652" height="23.839"/>
		</g>
		<g>
			<rect x="3841.6" y="1098.512" fill="#B3B3B3" width="18.652" height="72.158"/>
			<rect x="3841.6" y="1122.672" opacity="0.2" width="18.652" height="24.16"/>
			<rect x="3841.6" y="1146.832" opacity="0.3" width="18.652" height="23.839"/>
		</g>
		<g>
			<rect x="3841.6" y="1235.33" fill="#B3B3B3" width="18.652" height="72.158"/>
			<rect x="3841.6" y="1259.49" opacity="0.2" width="18.652" height="24.16"/>
			<rect x="3841.6" y="1283.65" opacity="0.3" width="18.652" height="23.839"/>
		</g>
		<g>
			<rect x="3841.6" y="1372.152" fill="#B3B3B3" width="18.652" height="72.158"/>
			<rect x="3841.6" y="1396.311" opacity="0.2" width="18.652" height="24.161"/>
			<rect x="3841.6" y="1420.472" opacity="0.3" width="18.652" height="23.838"/>
		</g>
	</g>
</g>
</svg>
