<?xml version="1.0" encoding="utf-8"?>
<!-- Generator: Adobe Illustrator 16.0.0, SVG Export Plug-In . SVG Version: 6.00 Build 0)  -->
<!DOCTYPE svg PUBLIC "-//W3C//DTD SVG 1.1//EN" "http://www.w3.org/Graphics/SVG/1.1/DTD/svg11.dtd">
<svg version="1.1" id="finalPageTube" xmlns="http://www.w3.org/2000/svg" xmlns:xlink="http://www.w3.org/1999/xlink" x="0px"
	 y="0px" width="3840px" height="2160px" viewBox="0 0 3840 2160" enable-background="new 0 0 3840 2160" xml:space="preserve">
<path id="trajectoire" fill="none" stroke="#000000" stroke-miterlimit="10" d="M3339.765,1806.903
	c-1098.996,0-791.178-717.125-2867.95-717.125H-800.594"/>
<g id="capsule_1_">
	<g>
		<path fill="#E6E6E6" d="M-32.168,893.748c-2.178-1.678-6.209-3.052-8.959-3.052h-720c-2.75,0-6.781,1.374-8.959,3.052
			l-127.314,98.13c-2.178,1.679-3.96,5.302-3.96,8.052l-0.001,173.529c0,2.75,1.782,6.375,3.96,8.053l127.313,98.129
			c2.178,1.68,6.211,3.053,8.961,3.053h720c2.75,0,6.78-1.373,8.959-3.053l127.314-98.129c2.178-1.68,3.961-5.303,3.961-8.053
			V999.929c0-2.75-1.783-6.374-3.961-8.052L-32.168,893.748z"/>
	</g>
	<g>
		<path fill="#019DE7" d="M-766.128,1288.536c0,2.75-1.746,3.58-3.879,1.844l-127.477-103.689c-2.134-1.734-3.879-5.404-3.879-8.154
			l0.001-183.683c0-2.75,1.746-6.42,3.879-8.154l127.477-103.69c2.133-1.735,3.879-0.905,3.879,1.845L-766.128,1288.536z"/>
	</g>
	<g>
		<path fill="#332E2D" d="M-739.375,1293.79c0,2.75-2.25,5-5,5h-18.752c-2.75,0-5-2.25-5-5V879.601c0-2.75,2.25-5,5-5h18.752
			c2.75,0,5,2.25,5,5V1293.79z"/>
	</g>
	<g>
		<path fill="#019DE7" d="M-36.127,884.853c0-2.75,1.746-3.58,3.879-1.845l127.478,103.69c2.133,1.734,3.879,5.404,3.879,8.154
			v183.683c0,2.75-1.746,6.42-3.879,8.154L-32.249,1290.38c-2.133,1.736-3.879,0.906-3.879-1.844V884.853z"/>
	</g>
	<g opacity="0.2">
		<path d="M94.108,1089.778c2.75,0,5,2.25,5,5v86.84c0,2.75-1.746,6.42-3.879,8.154l-127.478,103.691
			c-2.133,1.734-3.879,0.904-3.879-1.846v-196.842c0-2.75,2.25-5,5-5H94.108V1089.778z"/>
	</g>
	<g opacity="0.2">
		<path d="M-896.361,1086.694c-2.75,0-5,2.25-5,5l-0.001,86.84c0,2.75,1.746,6.42,3.879,8.154l127.477,103.691
			c2.133,1.734,3.879,0.904,3.879-1.846l0.001-196.842c0-2.75-2.25-5-5-5h-125.234V1086.694z"/>
	</g>
	<g>
		<path fill="#332E2D" d="M-62.879,879.599c0-2.75,2.25-5,5-5h18.752c2.75,0,5,2.25,5,5v414.189c0,2.75-2.25,5-5,5h-18.752
			c-2.75,0-5-2.25-5-5V879.599z"/>
	</g>
	<rect x="-739.375" y="1089.778" opacity="0.1" enable-background="new    " width="676.498" height="192.916"/>
</g>
<g id="tube">
	<path fill="#666666" d="M-1234.257,848.292c-14,66.59-136,241.479-277,241.479h-4515.34V848.292h0.001v482.97H453.546
		c14-66.589,136-241.479,277-241.479h210v-241.49L-1234.257,848.292z"/>
	<path opacity="0.2" enable-background="new    " d="M543.771,1186.235H-6026.6v145.026l6480.146-0.001
		C460.515,1298.112,494.252,1238.126,543.771,1186.235z"/>
	<path opacity="0.5" fill="#FFFFFF" enable-background="new    " d="M-6026.596,848.293v241.479h4515.339
		c141,0,263-174.89,277-241.479H-6026.596L-6026.596,848.293z"/>
</g>
<g id="joint">
	<circle fill="#B3B3B3" cx="41.514" cy="1295.008" r="36.254"/>
	<path opacity="0.2" enable-background="new    " d="M77.769,1295.008c0,20.021-16.231,36.254-36.255,36.254
		c-20.022,0-36.254-16.231-36.254-36.254"/>
	<circle fill="#B3B3B3" cx="41.514" cy="884.548" r="36.254"/>
	<circle fill="#B3B3B3" cx="41.514" cy="1021.368" r="36.254"/>
	<circle fill="#B3B3B3" cx="41.514" cy="1158.188" r="36.254"/>
	<path opacity="0.2" enable-background="new    " d="M77.769,1158.188c0,20.021-16.231,36.255-36.255,36.255
		c-20.022,0-36.254-16.232-36.254-36.255"/>
	<path opacity="0.2" enable-background="new    " d="M77.769,1021.368c0,20.021-16.231,36.254-36.255,36.254
		c-20.022,0-36.254-16.232-36.254-36.254"/>
	<path opacity="0.2" enable-background="new    " d="M77.769,884.548c0,20.021-16.231,36.254-36.255,36.254
		c-20.022,0-36.254-16.231-36.254-36.254"/>
	<rect x="25.446" y="804.198" fill="#333333" width="71.995" height="571.159"/>
	<rect x="25.446" y="1158.188" opacity="0.2" enable-background="new    " width="73.661" height="217.171"/>
	<g>
		<rect x="97.441" y="848.293" fill="#B3B3B3" width="18.652" height="72.158"/>
		<rect x="97.441" y="872.454" opacity="0.2" enable-background="new    " width="18.652" height="24.159"/>
		<rect x="97.441" y="896.613" opacity="0.3" enable-background="new    " width="18.652" height="23.839"/>
	</g>
	<g>
		<rect x="97.441" y="985.29" fill="#B3B3B3" width="18.652" height="72.157"/>
		<rect x="97.441" y="1009.449" opacity="0.2" enable-background="new    " width="18.652" height="24.16"/>
		<rect x="97.441" y="1033.609" opacity="0.3" enable-background="new    " width="18.652" height="23.84"/>
	</g>
	<g>
		<rect x="97.441" y="1122.109" fill="#B3B3B3" width="18.652" height="72.155"/>
		<rect x="97.441" y="1146.268" opacity="0.2" enable-background="new    " width="18.652" height="24.16"/>
		<rect x="97.441" y="1170.428" opacity="0.3" enable-background="new    " width="18.652" height="23.838"/>
	</g>
	<g>
		<rect x="97.441" y="1258.928" fill="#B3B3B3" width="18.652" height="72.158"/>
		<rect x="97.441" y="1283.088" opacity="0.2" enable-background="new    " width="18.652" height="24.162"/>
		<rect x="97.441" y="1307.25" opacity="0.3" enable-background="new    " width="18.652" height="23.838"/>
	</g>
</g>
</svg>
