<?xml version="1.0" encoding="utf-8"?>
<!-- Generator: Adobe Illustrator 16.0.0, SVG Export Plug-In . SVG Version: 6.00 Build 0)  -->
<!DOCTYPE svg PUBLIC "-//W3C//DTD SVG 1.1//EN" "http://www.w3.org/Graphics/SVG/1.1/DTD/svg11.dtd">
<svg version="1.1" id="finalPageTube" xmlns="http://www.w3.org/2000/svg" xmlns:xlink="http://www.w3.org/1999/xlink" x="0px"
	 y="0px" width="3840px" height="2160px" viewBox="0 0 3840 2160" enable-background="new 0 0 3840 2160" xml:space="preserve">
<g>
	<g>
		<path fill="#666666" d="M3.083,1331.263v-482.97h937.463v241.49h-210c-141,0-263,174.89-277,241.479H3.083z"/>
		<rect x="3.083" y="848.294" opacity="0.2" width="937.452" height="145.03"/>
	</g>
	<g>
		<circle fill="#B3B3B3" cx="60.676" cy="1295.009" r="36.254"/>
		<path opacity="0.2" d="M24.422,1295.008c0,20.021,16.231,36.254,36.255,36.254c20.022,0,36.254-16.232,36.254-36.254"/>
		<circle fill="#B3B3B3" cx="60.676" cy="884.548" r="36.254"/>
		<circle fill="#B3B3B3" cx="60.676" cy="1021.368" r="36.254"/>
		<circle fill="#B3B3B3" cx="60.676" cy="1158.188" r="36.254"/>
		<path opacity="0.2" d="M24.422,1158.188c0,20.021,16.231,36.254,36.255,36.254c20.022,0,36.254-16.232,36.254-36.254"/>
		<path opacity="0.2" d="M24.422,1021.368c0,20.021,16.231,36.254,36.255,36.254c20.022,0,36.254-16.232,36.254-36.254"/>
		<path opacity="0.2" d="M24.422,884.548c0,20.021,16.231,36.254,36.255,36.254c20.022,0,36.254-16.232,36.254-36.254"/>
		<rect x="4.749" y="804.198" fill="#333333" width="71.995" height="571.16"/>
		<rect x="3.083" y="1158.187" opacity="0.2" width="73.661" height="217.171"/>
	</g>
</g>
</svg>
