<?xml version="1.0" encoding="utf-8"?>
<!-- Generator: Adobe Illustrator 16.0.0, SVG Export Plug-In . SVG Version: 6.00 Build 0)  -->
<!DOCTYPE svg PUBLIC "-//W3C//DTD SVG 1.1//EN" "http://www.w3.org/Graphics/SVG/1.1/DTD/svg11.dtd">
<svg version="1.1" id="finalPageCapsule" xmlns="http://www.w3.org/2000/svg" xmlns:xlink="http://www.w3.org/1999/xlink" x="0px"
	 y="0px" width="1000.471px" height="424.19px" viewBox="0 0 1000.471 424.19" enable-background="new 0 0 1000.471 424.19"
	 xml:space="preserve">
<g id="capsule">
	<g>
		<path fill="#E6E6E6" d="M869.194,19.148c-2.178-1.678-6.209-3.052-8.959-3.052h-720c-2.75,0-6.781,1.374-8.959,3.052
			L3.962,117.278c-2.178,1.679-3.96,5.302-3.96,8.052L0.001,298.859c0,2.75,1.782,6.374,3.96,8.052l127.313,98.13
			c2.178,1.68,6.211,3.053,8.961,3.053h720c2.75,0,6.78-1.374,8.959-3.053l127.314-98.13c2.178-1.679,3.961-5.302,3.961-8.052
			V125.33c0-2.75-1.783-6.374-3.961-8.052L869.194,19.148z"/>
	</g>
	<g>
		<path fill="#019DE7" d="M135.234,413.937c0,2.75-1.746,3.58-3.879,1.845L3.879,312.092C1.745,310.356,0,306.687,0,303.937
			l0.001-183.683c0-2.75,1.746-6.42,3.879-8.154L131.356,8.409c2.133-1.735,3.879-0.905,3.879,1.845L135.234,413.937z"/>
	</g>
	<g>
		<path fill="#332E2D" d="M161.987,419.19c0,2.75-2.25,5-5,5h-18.752c-2.75,0-5-2.25-5-5V5.002c0-2.75,2.25-5,5-5h18.752
			c2.75,0,5,2.25,5,5V419.19z"/>
	</g>
	<g>
		<path fill="#019DE7" d="M865.235,10.254c0-2.75,1.746-3.58,3.879-1.845L996.592,112.1c2.133,1.734,3.879,5.404,3.879,8.154
			v183.683c0,2.75-1.746,6.42-3.879,8.155L869.114,415.781c-2.133,1.735-3.879,0.905-3.879-1.845V10.254z"/>
	</g>
	<g opacity="0.2">
		<path d="M995.471,212.096c2.75,0,5,2.25,5,5v86.841c0,2.75-1.746,6.42-3.879,8.154l-127.478,103.69
			c-2.133,1.735-3.879,0.905-3.879-1.845V217.095c0-2.75,2.25-5,5-5L995.471,212.096L995.471,212.096z"/>
	</g>
	<g opacity="0.2">
		<path d="M5.002,212.095c-2.75,0-5,2.25-5,5l-0.001,86.841c0,2.75,1.746,6.42,3.879,8.154l127.477,103.69
			c2.133,1.735,3.879,0.905,3.879-1.845l0.001-196.842c0-2.75-2.25-5-5-5L5.002,212.095L5.002,212.095z"/>
	</g>
	<g>
		<path fill="#332E2D" d="M838.483,5c0-2.75,2.25-5,5-5h18.752c2.75,0,5,2.25,5,5v414.189c0,2.75-2.25,5-5,5h-18.752
			c-2.75,0-5-2.25-5-5V5z"/>
	</g>
	<rect x="161.987" y="215.179" opacity="0.1" enable-background="new    " width="676.498" height="192.916"/>
</g>
</svg>
