<?xml version="1.0" encoding="utf-8"?>
<!-- Generator: Adobe Illustrator 16.0.0, SVG Export Plug-In . SVG Version: 6.00 Build 0)  -->
<!DOCTYPE svg PUBLIC "-//W3C//DTD SVG 1.1//EN" "http://www.w3.org/Graphics/SVG/1.1/DTD/svg11.dtd">
<svg version="1.1" id="Calque_1" xmlns="http://www.w3.org/2000/svg" xmlns:xlink="http://www.w3.org/1999/xlink" x="0px" y="0px"
	 width="84px" height="84px" viewBox="0 0 84 84" enable-background="new 0 0 84 84" xml:space="preserve">
<g>
	<path fill="#FFFFFF" d="M84,14c0-7.355-6.639-14-13.999-14h-56C6.641,0,0,6.645,0,14v56c0,7.355,6.641,14,14.001,14H42V52.268
		H31.733v-14H42v-5.455c0-9.407,7.064-17.879,15.75-17.879h11.316v14H57.75c-1.238,0-2.684,1.505-2.684,3.756v5.578h14v14h-14V84
		h14.935C77.361,84,84,77.355,84,70V14z M84,14"/>
</g>
</svg>
