<?xml version="1.0" encoding="utf-8"?>
<!-- Generator: Adobe Illustrator 16.0.0, SVG Export Plug-In . SVG Version: 6.00 Build 0)  -->
<!DOCTYPE svg PUBLIC "-//W3C//DTD SVG 1.1//EN" "http://www.w3.org/Graphics/SVG/1.1/DTD/svg11.dtd">
<svg version="1.1" id="Calque_1" xmlns="http://www.w3.org/2000/svg" xmlns:xlink="http://www.w3.org/1999/xlink" x="0px" y="0px"
	 width="84px" height="84px" viewBox="0 0 84 84" enable-background="new 0 0 84 84" xml:space="preserve">
<g>
	<path fill="#FFFFFF" d="M68.236,0H15.734C7.047,0,0,7.044,0,15.735v52.494C0,76.951,7.047,84,15.734,84h52.502
		C76.951,84,84,76.951,84,68.229V15.735C84,7.044,76.951,0,68.236,0L68.236,0z M62.904,32.577l0.025,1.333
		c0,13.662-10.406,29.424-29.43,29.424c-5.842,0-11.277-1.711-15.844-4.67c0.795,0.111,1.621,0.162,2.461,0.162
		c4.85,0,9.305-1.666,12.844-4.436c-4.533-0.082-8.328-3.08-9.662-7.182c0.639,0.131,1.285,0.184,1.951,0.184
		c0.947,0,1.871-0.123,2.715-0.355c-4.715-0.957-8.279-5.131-8.279-10.125v-0.139c1.383,0.777,2.973,1.238,4.664,1.289
		c-2.768-1.848-4.588-5.029-4.588-8.588c0-1.896,0.514-3.689,1.414-5.203c5.072,6.254,12.711,10.356,21.301,10.795
		c-0.188-0.751-0.254-1.543-0.254-2.365c0-5.691,4.607-10.328,10.326-10.328c2.973,0,5.666,1.258,7.561,3.258
		c2.334-0.463,4.563-1.309,6.564-2.486c-0.771,2.41-2.41,4.434-4.564,5.713c2.102-0.259,4.102-0.82,5.947-1.645
		C66.674,29.295,64.902,31.113,62.904,32.577L62.904,32.577z M62.904,32.577"/>
</g>
</svg>
