<?xml version="1.0" encoding="utf-8"?>
<!-- Generator: Adobe Illustrator 16.0.0, SVG Export Plug-In . SVG Version: 6.00 Build 0)  -->
<!DOCTYPE svg PUBLIC "-//W3C//DTD SVG 1.1//EN" "http://www.w3.org/Graphics/SVG/1.1/DTD/svg11.dtd">
<svg version="1.1" id="Calque_1" xmlns="http://www.w3.org/2000/svg" xmlns:xlink="http://www.w3.org/1999/xlink" x="0px" y="0px"
	 width="84px" height="84px" viewBox="0 0 84 84" enable-background="new 0 0 84 84" xml:space="preserve">
<g>
	<path fill="#FFFFFF" d="M30.297,67.539c-0.582,0.109-0.839,0.385-0.767,0.82c0.073,0.438,0.404,0.583,0.987,0.438
		c0.583-0.147,0.84-0.403,0.765-0.766C31.209,67.632,30.882,67.464,30.297,67.539L30.297,67.539z M30.297,67.539"/>
	<path fill="#FFFFFF" d="M27.182,67.977c-0.584,0-0.875,0.199-0.875,0.604c0,0.47,0.311,0.672,0.93,0.599
		c0.583,0,0.876-0.2,0.876-0.599C28.112,68.104,27.801,67.903,27.182,67.977L27.182,67.977z M27.182,67.977"/>
	<path fill="#FFFFFF" d="M22.914,67.812c-0.145,0.399,0.092,0.676,0.711,0.818c0.548,0.222,0.895,0.112,1.04-0.326
		c0.11-0.4-0.13-0.692-0.712-0.876C23.408,67.285,23.06,67.407,22.914,67.812L22.914,67.812z M22.914,67.812"/>
	<path fill="#FFFFFF" d="M79.379,4.621C76.298,1.54,72.591,0,68.252,0H15.75C11.413,0,7.703,1.54,4.622,4.621
		C1.541,7.701,0,11.411,0,15.748V68.25c0,4.341,1.541,8.048,4.622,11.128C7.703,82.459,11.413,84,15.75,84h12.251
		c0.803,0,1.402-0.026,1.806-0.078c0.399-0.057,0.801-0.295,1.202-0.715s0.6-1.029,0.6-1.832c0-0.108-0.01-1.348-0.025-3.718
		c-0.021-2.369-0.03-4.248-0.03-5.635l-1.258,0.221c-0.801,0.145-1.813,0.206-3.035,0.19c-1.22-0.021-2.488-0.145-3.799-0.385
		c-1.313-0.237-2.534-0.782-3.663-1.638c-1.132-0.858-1.935-1.979-2.407-3.362l-0.547-1.259C16.48,64.951,15.906,64.02,15.12,63
		c-0.784-1.023-1.577-1.714-2.377-2.078l-0.384-0.275c-0.255-0.18-0.49-0.4-0.711-0.655c-0.22-0.255-0.384-0.511-0.492-0.767
		c-0.11-0.256-0.02-0.465,0.272-0.63c0.292-0.163,0.82-0.244,1.587-0.244l1.094,0.163c0.728,0.147,1.63,0.583,2.707,1.313
		c1.076,0.728,1.958,1.675,2.652,2.842c0.84,1.495,1.849,2.637,3.034,3.42c1.185,0.782,2.38,1.176,3.583,1.176
		c1.202,0,2.242-0.092,3.118-0.274c0.875-0.181,1.693-0.455,2.46-0.82c0.328-2.441,1.22-4.321,2.678-5.631
		c-2.077-0.22-3.944-0.548-5.604-0.986c-1.658-0.437-3.373-1.147-5.14-2.134c-1.768-0.983-3.236-2.207-4.404-3.664
		c-1.168-1.459-2.123-3.374-2.87-5.743c-0.748-2.369-1.122-5.103-1.122-8.203c0-4.412,1.441-8.167,4.324-11.265
		c-1.352-3.316-1.223-7.037,0.379-11.157c1.059-0.328,2.626-0.081,4.704,0.737c2.077,0.823,3.602,1.524,4.567,2.107
		c0.969,0.583,1.742,1.075,2.324,1.475c3.393-0.947,6.891-1.419,10.502-1.419c3.608,0,7.108,0.472,10.498,1.419l2.078-1.312
		c1.422-0.873,3.101-1.678,5.033-2.404c1.932-0.73,3.409-0.932,4.429-0.604c1.644,4.12,1.786,7.841,0.437,11.157
		c2.88,3.101,4.323,6.856,4.323,11.265c0,3.101-0.374,5.845-1.122,8.232c-0.747,2.387-1.713,4.3-2.897,5.742
		c-1.186,1.44-2.661,2.652-4.431,3.636c-1.767,0.986-3.48,1.697-5.139,2.134c-1.662,0.438-3.529,0.767-5.608,0.986
		c1.895,1.638,2.845,4.229,2.845,7.765v13.071c0,0.618,0.088,1.119,0.273,1.504c0.183,0.385,0.475,0.645,0.875,0.793
		c0.402,0.145,0.756,0.235,1.066,0.271C54.971,83.979,55.416,84,56,84h12.252c4.339,0,8.049-1.541,11.127-4.622
		C82.46,76.298,84,72.587,84,68.247V15.748C84,11.411,82.46,7.701,79.379,4.621L79.379,4.621z M79.379,4.621"/>
	<path fill="#FFFFFF" d="M16.624,61.143c-0.252,0.18-0.217,0.471,0.11,0.871c0.364,0.366,0.656,0.42,0.876,0.163
		c0.257-0.179,0.22-0.472-0.111-0.874C17.136,60.974,16.844,60.922,16.624,61.143L16.624,61.143z M16.624,61.143"/>
	<path fill="#FFFFFF" d="M14.821,59.771c-0.108,0.257,0.021,0.475,0.384,0.658c0.291,0.182,0.528,0.146,0.711-0.11
		c0.108-0.253-0.02-0.472-0.383-0.655C15.169,59.553,14.93,59.592,14.821,59.771L14.821,59.771z M14.821,59.771"/>
	<path fill="#FFFFFF" d="M18.321,63.271c-0.327,0.184-0.327,0.512,0,0.988c0.329,0.472,0.636,0.598,0.928,0.38
		c0.331-0.256,0.331-0.6,0-1.04C18.962,63.129,18.65,63.017,18.321,63.271L18.321,63.271z M18.321,63.271"/>
	<path fill="#FFFFFF" d="M20.236,65.732c-0.328,0.293-0.257,0.638,0.219,1.04c0.436,0.437,0.8,0.492,1.092,0.164
		c0.291-0.293,0.219-0.635-0.217-1.038C20.891,65.462,20.528,65.406,20.236,65.732L20.236,65.732z M20.236,65.732"/>
</g>
</svg>
