<?xml version="1.0" encoding="utf-8"?>
<!-- Generator: Adobe Illustrator 16.0.0, SVG Export Plug-In . SVG Version: 6.00 Build 0)  -->
<!DOCTYPE svg PUBLIC "-//W3C//DTD SVG 1.1//EN" "http://www.w3.org/Graphics/SVG/1.1/DTD/svg11.dtd">
<svg version="1.1" id="homePageTube" xmlns="http://www.w3.org/2000/svg" xmlns:xlink="http://www.w3.org/1999/xlink" x="0px"
	 y="0px" width="1100.003px" height="571.16px" viewBox="2739.997 917.421 1100.003 571.16"
	 enable-background="new 2739.997 917.421 1100.003 571.16" xml:space="preserve">
<g>
	<g>
		<path fill="#666666" d="M11776.236,961.516v482.971H2739.997v-241.49h210c141,0,263-174.891,277-241.48h8544.269H11776.236z"/>
		<rect x="2740" y="1299.458" opacity="0.2" enable-background="new    " width="9036.236" height="145.028"/>
		<path display="none" opacity="0.5" fill="#FFFFFF" enable-background="new    " d="M8776.681,959.26v241.48H4261.342
			c-141,0-263-174.892-277-241.48H8776.681z"/>
	</g>
	<g display="none">
		<circle display="inline" fill="#B3B3B3" cx="3785.673" cy="1408.231" r="36.254"/>
		<path display="inline" opacity="0.2" enable-background="new    " d="M3821.927,1408.23c0,20.021-16.23,36.254-36.255,36.254
			c-20.021,0-36.254-16.232-36.254-36.254"/>
		<circle display="inline" fill="#B3B3B3" cx="3785.673" cy="997.77" r="36.254"/>
		<circle display="inline" fill="#B3B3B3" cx="3785.673" cy="1134.591" r="36.254"/>
		<circle display="inline" fill="#B3B3B3" cx="3785.673" cy="1271.411" r="36.254"/>
		<path display="inline" opacity="0.2" enable-background="new    " d="M3821.927,1271.411c0,20.021-16.23,36.254-36.255,36.254
			c-20.021,0-36.254-16.232-36.254-36.254"/>
		<path display="inline" opacity="0.2" enable-background="new    " d="M3821.927,1134.591c0,20.021-16.23,36.254-36.255,36.254
			c-20.021,0-36.254-16.231-36.254-36.254"/>
		<path display="inline" opacity="0.2" enable-background="new    " d="M3821.927,997.77c0,20.022-16.23,36.255-36.255,36.255
			c-20.021,0-36.254-16.232-36.254-36.255"/>
		<rect x="3769.604" y="917.421" display="inline" fill="#333333" width="71.996" height="571.16"/>
		<rect x="3769.604" y="1271.411" display="inline" opacity="0.2" enable-background="new    " width="73.661" height="217.17"/>
		<g display="inline">
			<rect x="3841.601" y="961.516" fill="#B3B3B3" width="18.651" height="72.158"/>
			<rect x="3841.601" y="985.676" opacity="0.2" enable-background="new    " width="18.651" height="24.16"/>
			<rect x="3841.601" y="1009.836" opacity="0.3" enable-background="new    " width="18.651" height="23.839"/>
		</g>
		<g display="inline">
			<rect x="3841.601" y="1098.512" fill="#B3B3B3" width="18.651" height="72.158"/>
			<rect x="3841.601" y="1122.672" opacity="0.2" enable-background="new    " width="18.651" height="24.16"/>
			<rect x="3841.601" y="1146.832" opacity="0.3" enable-background="new    " width="18.651" height="23.839"/>
		</g>
		<g display="inline">
			<rect x="3841.601" y="1235.33" fill="#B3B3B3" width="18.651" height="72.158"/>
			<rect x="3841.601" y="1259.49" opacity="0.2" enable-background="new    " width="18.651" height="24.16"/>
			<rect x="3841.601" y="1283.65" opacity="0.3" enable-background="new    " width="18.651" height="23.839"/>
		</g>
		<g display="inline">
			<rect x="3841.601" y="1372.152" fill="#B3B3B3" width="18.651" height="72.157"/>
			<rect x="3841.601" y="1396.311" opacity="0.2" enable-background="new    " width="18.651" height="24.161"/>
			<rect x="3841.601" y="1420.472" opacity="0.3" enable-background="new    " width="18.651" height="23.839"/>
		</g>
	</g>
</g>
</svg>
