<?xml version="1.0" encoding="utf-8"?>
<!-- Generator: Adobe Illustrator 16.0.0, SVG Export Plug-In . SVG Version: 6.00 Build 0)  -->
<!DOCTYPE svg PUBLIC "-//W3C//DTD SVG 1.1//EN" "http://www.w3.org/Graphics/SVG/1.1/DTD/svg11.dtd">
<svg version="1.1" id="homePageZone" xmlns="http://www.w3.org/2000/svg" xmlns:xlink="http://www.w3.org/1999/xlink" x="0px"
	 y="0px" width="682.707px" height="1174.422px" viewBox="-1919.5 1080.5 682.707 1174.422"
	 enable-background="new -1919.5 1080.5 682.707 1174.422" xml:space="preserve">
<g opacity="0.5">
	<g>
		<g>
			<polygon fill="#48A0BF" points="-1884.5,1150.5 -1919.5,1150.5 -1919.5,1098 -1902,1080.5 -1849.5,1080.5 -1849.5,1115.5 
				-1884.5,1115.5 			"/>
		</g>
		<g>
			<path fill="#48A0BF" d="M-1884.5,2148.627h-35v-106.295h35V2148.627z M-1884.5,2006.038h-35v-106.295h35V2006.038z
				 M-1884.5,1863.448h-35v-106.295h35V1863.448z M-1884.5,1720.857h-35v-106.295h35V1720.857z M-1884.5,1578.269h-35v-106.294h35
				V1578.269z M-1884.5,1435.679h-35v-106.294h35V1435.679z M-1884.5,1293.09h-35v-106.295h35V1293.09z"/>
		</g>
		<g>
			<polygon fill="#48A0BF" points="-1849.5,2254.922 -1902,2254.922 -1919.5,2237.422 -1919.5,2184.922 -1884.5,2184.922 
				-1884.5,2219.922 -1849.5,2219.922 			"/>
		</g>
		<g>
			<path fill="#48A0BF" d="M-1335.983,2254.922h-99.189v-35h99.189V2254.922z M-1464.362,2254.922h-99.189v-35h99.189V2254.922z
				 M-1592.741,2254.922h-99.19v-35h99.19V2254.922z M-1721.121,2254.922h-99.189v-35h99.189V2254.922z"/>
		</g>
		<g>
			<polygon fill="#48A0BF" points="-1254.293,2254.922 -1306.793,2254.922 -1306.793,2219.922 -1271.793,2219.922 
				-1271.793,2184.922 -1236.793,2184.922 -1236.793,2237.422 			"/>
		</g>
		<g>
			<path fill="#48A0BF" d="M-1236.793,2148.627h-35v-106.295h35V2148.627z M-1236.793,2006.037h-35v-106.295h35V2006.037z
				 M-1236.793,1863.447h-35v-106.294h35V1863.447z M-1236.793,1720.857h-35v-106.295h35V1720.857z M-1236.793,1578.269h-35
				v-106.295h35V1578.269z M-1236.793,1435.679h-35v-106.295h35V1435.679z M-1236.793,1293.089h-35v-106.295h35V1293.089z"/>
		</g>
		<g>
			<polygon fill="#48A0BF" points="-1236.793,1150.5 -1271.793,1150.5 -1271.793,1115.5 -1306.793,1115.5 -1306.793,1080.5 
				-1254.293,1080.5 -1236.793,1098 			"/>
		</g>
		<g>
			<path fill="#48A0BF" d="M-1335.983,1115.5h-99.189v-35h99.189V1115.5z M-1464.362,1115.5h-99.189v-35h99.189V1115.5z
				 M-1592.741,1115.5h-99.189v-35h99.189V1115.5z M-1721.121,1115.5h-99.189v-35h99.189V1115.5z"/>
		</g>
	</g>
</g>
</svg>
