<?xml version="1.0" encoding="utf-8"?>
<!-- Generator: Adobe Illustrator 16.0.0, SVG Export Plug-In . SVG Version: 6.00 Build 0)  -->
<!DOCTYPE svg PUBLIC "-//W3C//DTD SVG 1.1//EN" "http://www.w3.org/Graphics/SVG/1.1/DTD/svg11.dtd">
<svg version="1.1" id="thankPageCapsule" xmlns="http://www.w3.org/2000/svg" xmlns:xlink="http://www.w3.org/1999/xlink" x="0px"
	 y="0px" width="3840px" height="2160px" viewBox="0 0 3840 2160" enable-background="new 0 0 3840 2160" xml:space="preserve">
<g>
	<g>
		<path fill="#E6E6E6" d="M-151.274,1008.898c-2.178-1.678-6.21-3.053-8.96-3.053h-720c-2.75,0-6.782,1.375-8.961,3.053
			l-127.313,98.129c-2.178,1.679-3.96,5.303-3.96,8.053l-0.001,173.53c0,2.75,1.782,6.374,3.96,8.053l127.313,98.128
			c2.179,1.679,6.211,3.053,8.961,3.053h720.001c2.75,0,6.782-1.375,8.96-3.053l127.314-98.128c2.178-1.679,3.96-5.303,3.96-8.053
			v-173.53c0-2.75-1.782-6.374-3.96-8.053L-151.274,1008.898z"/>
	</g>
	<g>
		<path fill="#019DE7" d="M-885.235,1403.686c0,2.75-1.746,3.58-3.879,1.845l-127.477-103.689c-2.134-1.735-3.879-5.405-3.879-8.155
			l0.001-183.682c0-2.75,1.745-6.42,3.879-8.155l127.477-103.689c2.133-1.735,3.879-0.905,3.879,1.845L-885.235,1403.686z"/>
	</g>
	<g>
		<path fill="#332E2D" d="M-858.483,1408.939c0,2.75-2.25,5-5,5h-18.752c-2.75,0-5-2.25-5-5l0.001-414.189c0-2.75,2.25-5,5-5h18.752
			c2.75,0,5,2.25,5,5L-858.483,1408.939z"/>
	</g>
	<g>
		<path fill="#019DE7" d="M-155.234,1000.004c0-2.75,1.745-3.58,3.879-1.845l127.477,103.689c2.133,1.735,3.879,5.405,3.879,8.155
			v183.682c0,2.75-1.746,6.42-3.879,8.155l-127.477,103.689c-2.134,1.735-3.879,0.905-3.879-1.845V1000.004z"/>
	</g>
	<g opacity="0.2">
		<path d="M-25,1204.928c2.75,0,5,2.25,5,5v86.84c0,2.75-1.746,6.42-3.879,8.156l-127.477,103.69
			c-2.134,1.735-3.879,0.904-3.879-1.846v-196.84c0-2.75,2.25-5,5-5H-25z"/>
	</g>
	<g opacity="0.2">
		<path d="M-1015.469,1201.844c-2.75,0-5,2.25-5,5l-0.001,86.841c0,2.75,1.745,6.419,3.879,8.155l127.477,103.69
			c2.133,1.735,3.879,0.905,3.879-1.845l0.001-196.841c0-2.75-2.25-5-5-5H-1015.469z"/>
	</g>
	<g>
		<path fill="#332E2D" d="M-181.986,994.75c0-2.75,2.25-5,5-5h18.752c2.75,0,5,2.25,5,5v414.189c0,2.75-2.25,5-5,5h-18.752
			c-2.75,0-5-2.25-5-5V994.75z"/>
	</g>
	<rect x="-858.483" y="1204.928" opacity="0.1" width="676.497" height="192.916"/>
</g>
</svg>
