<?xml version="1.0" encoding="utf-8"?>
<!-- Generator: Adobe Illustrator 16.0.0, SVG Export Plug-In . SVG Version: 6.00 Build 0)  -->
<!DOCTYPE svg PUBLIC "-//W3C//DTD SVG 1.1//EN" "http://www.w3.org/Graphics/SVG/1.1/DTD/svg11.dtd">
<svg version="1.1" id="thankPageTubeElem02" xmlns="http://www.w3.org/2000/svg" xmlns:xlink="http://www.w3.org/1999/xlink"
	 x="0px" y="0px" width="3840px" height="2160px" viewBox="0 0 3840 2160" enable-background="new 0 0 3840 2160"
	 xml:space="preserve">
<g>
	<circle fill="#B3B3B3" cx="3936.194" cy="1405.97" r="36.254"/>
	<path opacity="0.2" d="M3972.448,1405.969c0,20.021-16.231,36.254-36.255,36.254c-20.022,0-36.254-16.232-36.254-36.254"/>
	<circle fill="#B3B3B3" cx="3936.194" cy="995.51" r="36.254"/>
	<circle fill="#B3B3B3" cx="3936.194" cy="1132.33" r="36.254"/>
	<circle fill="#B3B3B3" cx="3936.194" cy="1269.15" r="36.254"/>
	<path opacity="0.2" d="M3972.448,1269.15c0,20.022-16.231,36.254-36.255,36.254c-20.022,0-36.254-16.232-36.254-36.254"/>
	<path opacity="0.2" d="M3972.448,1132.33c0,20.021-16.231,36.253-36.255,36.253c-20.022,0-36.254-16.232-36.254-36.253"/>
	<path opacity="0.2" d="M3972.448,995.51c0,20.021-16.231,36.253-36.255,36.253c-20.022,0-36.254-16.232-36.254-36.253"/>
	<rect x="3920.126" y="915.16" fill="#333333" width="71.995" height="571.16"/>
	<rect x="3920.126" y="1269.149" opacity="0.2" width="73.661" height="217.171"/>
	<g>
		<rect x="3992.121" y="959.255" fill="#B3B3B3" width="18.652" height="72.159"/>
		<rect x="3992.121" y="983.415" opacity="0.2" width="18.652" height="24.16"/>
		<rect x="3992.121" y="1007.575" opacity="0.3" width="18.652" height="23.839"/>
	</g>
	<g>
		<rect x="3992.121" y="1096.25" fill="#B3B3B3" width="18.652" height="72.159"/>
		<rect x="3992.121" y="1120.411" opacity="0.2" width="18.652" height="24.16"/>
		<rect x="3992.121" y="1144.571" opacity="0.3" width="18.652" height="23.839"/>
	</g>
	<g>
		<rect x="3992.121" y="1233.069" fill="#B3B3B3" width="18.652" height="72.158"/>
		<rect x="3992.121" y="1257.229" opacity="0.2" width="18.652" height="24.16"/>
		<rect x="3992.121" y="1281.389" opacity="0.3" width="18.652" height="23.839"/>
	</g>
	<g>
		<rect x="3992.121" y="1369.891" fill="#B3B3B3" width="18.652" height="72.158"/>
		<rect x="3992.121" y="1394.05" opacity="0.2" width="18.652" height="24.16"/>
		<rect x="3992.121" y="1418.21" opacity="0.3" width="18.652" height="23.839"/>
	</g>
</g>
</svg>
