<?xml version="1.0" encoding="utf-8"?>
<!-- Generator: Adobe Illustrator 16.0.0, SVG Export Plug-In . SVG Version: 6.00 Build 0)  -->
<!DOCTYPE svg PUBLIC "-//W3C//DTD SVG 1.1//EN" "http://www.w3.org/Graphics/SVG/1.1/DTD/svg11.dtd">
<svg version="1.1" id="finalPageCapsule" xmlns="http://www.w3.org/2000/svg" xmlns:xlink="http://www.w3.org/1999/xlink" x="0px"
	 y="0px" width="3840px" height="2160px" viewBox="0 0 3840 2160" enable-background="new 0 0 3840 2160" xml:space="preserve">
<g>
	<g>
		<path fill="#E6E6E6" d="M3708.724,1610.873c-2.178-1.678-6.209-3.052-8.959-3.052h-720c-2.75,0-6.782,1.374-8.96,3.052
			l-127.314,98.13c-2.178,1.679-3.96,5.302-3.96,8.052l-0.001,173.529c0,2.75,1.782,6.374,3.96,8.052l127.314,98.13
			c2.177,1.679,6.21,3.052,8.96,3.052h720c2.75,0,6.781-1.374,8.959-3.052l127.315-98.13c2.178-1.679,3.961-5.302,3.961-8.052
			v-173.529c0-2.75-1.783-6.374-3.961-8.052L3708.724,1610.873z"/>
	</g>
	<g>
		<path fill="#019DE7" d="M2974.764,2005.661c0,2.75-1.746,3.58-3.879,1.845l-127.477-103.69c-2.133-1.735-3.879-5.405-3.879-8.155
			l0.001-183.682c0-2.75,1.746-6.42,3.879-8.155l127.477-103.69c2.133-1.735,3.879-0.905,3.879,1.845L2974.764,2005.661z"/>
	</g>
	<g>
		<path fill="#332E2D" d="M3001.516,2010.915c0,2.75-2.25,5-5,5h-18.752c-2.75,0-5-2.25-5-5l0.001-414.189c0-2.75,2.25-5,5-5h18.752
			c2.75,0,5,2.25,5,5L3001.516,2010.915z"/>
	</g>
	<g>
		<path fill="#019DE7" d="M3704.765,1601.979c0-2.75,1.746-3.581,3.879-1.845l127.477,103.69c2.133,1.735,3.879,5.405,3.879,8.155
			v183.682c0,2.75-1.746,6.42-3.879,8.155l-127.477,103.69c-2.133,1.735-3.879,0.905-3.879-1.845V1601.979z"/>
	</g>
	<g opacity="0.2">
		<path d="M3835,1806.903c2.75,0,5,2.25,5,5v86.841c0,2.75-1.746,6.42-3.879,8.155l-127.477,103.69
			c-2.133,1.735-3.879,0.905-3.879-1.845v-196.841c0-2.75,2.25-5,5-5H3835z"/>
	</g>
	<g opacity="0.2">
		<path d="M2844.531,1803.819c-2.75,0-5,2.25-5,5l-0.001,86.841c0,2.75,1.746,6.42,3.879,8.155l127.477,103.69
			c2.133,1.735,3.879,0.905,3.879-1.845l0.001-196.841c0-2.75-2.25-5-5-5H2844.531z"/>
	</g>
	<g>
		<path fill="#332E2D" d="M3678.013,1596.725c0-2.75,2.25-5,5-5h18.752c2.75,0,5,2.25,5,5v414.189c0,2.75-2.25,5-5,5h-18.752
			c-2.75,0-5-2.25-5-5V1596.725z"/>
	</g>
	<rect x="3001.517" y="1806.903" opacity="0.1" width="676.497" height="192.916"/>
</g>
</svg>
